<?xml version="1.0" encoding="UTF-8" standalone="no"?>
<!-- Svg Vector Icons : http://www.onlinewebfonts.com/icon -->

<svg
   xmlns:dc="http://purl.org/dc/elements/1.1/"
   xmlns:cc="http://creativecommons.org/ns#"
   xmlns:rdf="http://www.w3.org/1999/02/22-rdf-syntax-ns#"
   xmlns:svg="http://www.w3.org/2000/svg"
   xmlns="http://www.w3.org/2000/svg"
   xmlns:sodipodi="http://sodipodi.sourceforge.net/DTD/sodipodi-0.dtd"
   xmlns:inkscape="http://www.inkscape.org/namespaces/inkscape"
   version="1.1"
   x="0px"
   y="0px"
   viewBox="0 0 100 100"
   enable-background="new 0 0 1000 1000"
   xml:space="preserve"
   id="svg2"
   inkscape:version="0.91 r13725"
   sodipodi:docname="arrowBack.svg"
   width="100"
   height="100"
   inkscape:export-filename="C:\Users\daan\Documents\School\2016 - 2017\Software\DaanDV-immalle.github.io\img\arrowBack.png"
   inkscape:export-xdpi="90"
   inkscape:export-ydpi="90"><defs
     id="defs12" /><sodipodi:namedview
     pagecolor="#ffffff"
     bordercolor="#666666"
     borderopacity="1"
     objecttolerance="10"
     gridtolerance="10"
     guidetolerance="10"
     inkscape:pageopacity="0"
     inkscape:pageshadow="2"
     inkscape:window-width="1680"
     inkscape:window-height="987"
     id="namedview10"
     showgrid="false"
     inkscape:zoom="16"
     inkscape:cx="4.9067428"
     inkscape:cy="5.8980679"
     inkscape:window-x="-8"
     inkscape:window-y="-8"
     inkscape:window-maximized="1"
     inkscape:current-layer="svg2" /><metadata
     id="metadata4"> Svg Vector Icons : http://www.onlinewebfonts.com/icon <rdf:RDF><cc:Work
     rdf:about=""><dc:format>image/svg+xml</dc:format><dc:type
       rdf:resource="http://purl.org/dc/dcmitype/StillImage" /><dc:title></dc:title></cc:Work></rdf:RDF></metadata><g
     id="g6"
     transform="matrix(-0.10203799,0,0,0.10792428,101.01764,-3.9681721)"
     style="fill:#28aadc;fill-opacity:1"><path
       d="m 885.6,528.7 c -3.8,-2.2 -7.2,-1.2 -10.5,-1.2 -284.6,-0.1 -569.2,-0.1 -853.8,-0.1 -11.1,0 -11.1,0 -11.1,-11.4 0,-12 0.4,-24.1 -0.2,-36.1 -0.3,-6.2 1.9,-8.2 7.7,-7.3 2,0.3 4,0 6,0 283.7,0 567.5,0 851.2,0 3.3,0 6.8,0.9 10.1,-0.8 -1.1,-3.4 -3.9,-5 -6,-7.1 C 750.7,336.4 622.4,208.2 493.8,80.2 c -5.4,-5.4 -5.5,-8 0.1,-13 9.6,-8.6 18.6,-17.8 27.4,-27.3 4.2,-4.5 6.4,-3.9 10.5,0.2 62.1,62.3 124.4,124.5 186.6,186.7 89.2,89 178.4,178.2 267.8,267.2 5,5 5.1,7.2 0.1,12.2 -151.5,150.9 -302.7,302 -453.9,453.3 -4.4,4.5 -6.9,5.6 -11.7,0.3 -9,-10 -18.8,-19.3 -28.5,-28.6 -3.7,-3.5 -4.3,-5.5 -0.2,-9.3 9.7,-9 18.8,-18.5 28.1,-27.8 119.6,-119.5 239.3,-239 358.9,-358.5 2.1,-2.2 4.2,-4.4 6.6,-6.9 l 0,0 z"
       id="path8"
       inkscape:connector-curvature="0"
       style="fill:#28aadc;fill-opacity:1" /></g></svg>